<?xml version="1.0" encoding="UTF-8" standalone="no"?>
<!-- Generator: Adobe Illustrator 23.0.4, SVG Export Plug-In . SVG Version: 6.00 Build 0)  -->

<svg
   xmlns:dc="http://purl.org/dc/elements/1.1/"
   xmlns:cc="http://creativecommons.org/ns#"
   xmlns:rdf="http://www.w3.org/1999/02/22-rdf-syntax-ns#"
   xmlns:svg="http://www.w3.org/2000/svg"
   xmlns="http://www.w3.org/2000/svg"
   xmlns:sodipodi="http://sodipodi.sourceforge.net/DTD/sodipodi-0.dtd"
   xmlns:inkscape="http://www.inkscape.org/namespaces/inkscape"
   version="1.1"
   id="Layer_1"
   x="0px"
   y="0px"
   viewBox="0 0 898.8 170.1"
   style="enable-background:new 0 0 898.8 170.1;"
   xml:space="preserve"
   sodipodi:docname="TDI_PI.svg"
   inkscape:version="0.92.3 (2405546, 2018-03-11)"><metadata
   id="metadata3963"><rdf:RDF><cc:Work
       rdf:about=""><dc:format>image/svg+xml</dc:format><dc:type
         rdf:resource="http://purl.org/dc/dcmitype/StillImage" /><dc:title></dc:title></cc:Work></rdf:RDF></metadata><defs
   id="defs3961">
	
	
<clipPath
   clipPathUnits="userSpaceOnUse"
   id="clipPath4117"><g
     inkscape:label="Clip"
     id="use4119"><g
       id="g4327">
		<polygon
   class="st0"
   points="162.8,37.4 181.7,37.4 181.7,92.5 189.7,92.5 189.7,37.4 208.7,37.4 208.7,30.6 162.8,30.6 "
   id="polygon4293"
   style="fill:#31ada8" />
		<g
   id="g4307">
			<path
   class="st0"
   d="m 214.6,27.2 h 8.1 V 55 h 0.2 c 1.3,-2.3 3.3,-4.3 5.8,-5.7 2.4,-1.4 5.2,-2.3 8.3,-2.3 6,0 15.5,3.7 15.5,19 v 26.5 h -8.1 V 67 c 0,-7.2 -2.7,-13.2 -10.3,-13.2 -5.2,0 -9.4,3.7 -10.8,8.1 -0.5,1.1 -0.5,2.3 -0.5,3.9 v 26.8 h -8.1 V 27.2 Z"
   id="path4295"
   inkscape:connector-curvature="0"
   style="fill:#31ada8" />
			<path
   class="st0"
   d="m 293.9,65.9 c 0.1,-5.1 -2.1,-13.1 -11.2,-13.1 -8.2,0 -11.8,7.5 -12.4,13.1 z m -23.7,5.8 c 0.2,10.9 7.2,15.4 15.3,15.4 5.8,0 9.3,-1 12.3,-2.3 l 1.4,5.8 c -2.8,1.3 -7.7,2.8 -14.8,2.8 -13.7,0 -21.9,-9 -21.9,-22.4 0,-13.4 7.9,-24 20.9,-24 14.5,0 18.4,12.8 18.4,21 0,1.6 -0.2,2.9 -0.3,3.8 z"
   id="path4297"
   inkscape:connector-curvature="0"
   style="fill:#31ada8" />
			<path
   class="st0"
   d="m 339.5,86.2 c 2,0.4 5,0.5 8.1,0.5 17.1,0 26.4,-9.6 26.4,-26.3 0.1,-14.6 -8.2,-23.9 -25.1,-23.9 -4.1,0 -7.3,0.4 -9.4,0.8 z m -8,-54.8 c 4.9,-0.7 10.7,-1.3 17,-1.3 11.5,0 19.7,2.7 25.1,7.7 5.5,5.1 8.7,12.2 8.7,22.2 0,10.1 -3.1,18.4 -8.9,24.1 -5.8,5.8 -15.4,8.9 -27.4,8.9 -5.7,0 -10.5,-0.3 -14.5,-0.7 z"
   id="path4299"
   inkscape:connector-curvature="0"
   style="fill:#31ada8" />
			<path
   class="st0"
   d="m 415.9,69.8 c -8.8,-0.2 -18.8,1.4 -18.8,10 0,5.2 3.5,7.7 7.6,7.7 5.8,0 9.5,-3.7 10.8,-7.4 0.3,-0.8 0.5,-1.8 0.5,-2.6 z m 1.1,22.7 -0.6,-5.6 h -0.3 c -2.5,3.5 -7.3,6.6 -13.6,6.6 -9,0 -13.6,-6.3 -13.6,-12.8 0,-10.8 9.6,-16.6 26.7,-16.5 v -0.9 c 0,-3.7 -1,-10.3 -10.1,-10.3 -4.1,0 -8.5,1.3 -11.6,3.3 L 392.1,51 c 3.7,-2.4 9,-4 14.6,-4 13.6,0 16.9,9.3 16.9,18.2 v 16.6 c 0,3.9 0.2,7.6 0.7,10.7 z"
   id="path4301"
   inkscape:connector-curvature="0"
   style="fill:#31ada8" />
			<path
   class="st0"
   d="M 446.1,35.2 V 48 h 11.6 v 6.2 h -11.6 v 24 c 0,5.5 1.6,8.6 6.1,8.6 2.1,0 3.7,-0.3 4.7,-0.5 l 0.4,6.1 c -1.6,0.6 -4,1.1 -7.2,1.1 -3.8,0 -6.8,-1.2 -8.7,-3.4 -2.3,-2.4 -3.1,-6.3 -3.1,-11.6 V 54.2 h -6.9 V 48 h 6.9 V 37.3 Z"
   id="path4303"
   inkscape:connector-curvature="0"
   style="fill:#31ada8" />
			<path
   class="st0"
   d="m 490.2,69.8 c -8.8,-0.2 -18.8,1.4 -18.8,10 0,5.2 3.5,7.7 7.6,7.7 5.8,0 9.5,-3.7 10.8,-7.4 0.3,-0.8 0.5,-1.8 0.5,-2.6 z m 1.2,22.7 -0.6,-5.6 h -0.3 c -2.5,3.5 -7.3,6.6 -13.6,6.6 -9,0 -13.6,-6.3 -13.6,-12.8 0,-10.8 9.6,-16.6 26.7,-16.5 V 63.3 C 490,59.6 489,53 479.9,53 c -4.1,0 -8.5,1.3 -11.6,3.3 L 466.5,51 c 3.7,-2.4 9,-4 14.6,-4 13.6,0 16.9,9.3 16.9,18.2 v 16.6 c 0,3.9 0.2,7.6 0.7,10.7 z"
   id="path4305"
   inkscape:connector-curvature="0"
   style="fill:#31ada8" />
		</g>
		<rect
   x="530.79999"
   y="30.6"
   class="st0"
   width="8"
   height="62"
   id="rect4309"
   style="fill:#31ada8" />
		<path
   class="st0"
   d="m 553.4,60.1 c 0,-4.6 -0.1,-8.4 -0.4,-12 h 7.2 l 0.5,7.4 h 0.2 c 2.2,-4.2 7.4,-8.4 14.7,-8.4 6.2,0 15.7,3.7 15.7,18.9 v 26.6 h -8.1 V 66.9 c 0,-7.2 -2.7,-13.1 -10.3,-13.1 -5.3,0 -9.5,3.8 -10.8,8.3 -0.4,1 -0.6,2.4 -0.6,3.8 v 26.7 h -8.1 z"
   id="path4311"
   inkscape:connector-curvature="0"
   style="fill:#31ada8" />
		<path
   class="st0"
   d="m 636.2,90.8 c -2.1,1.1 -6.8,2.6 -12.8,2.6 -13.4,0 -22.2,-9.1 -22.2,-22.7 0,-13.7 9.4,-23.6 23.9,-23.6 4.8,0 9,1.2 11.2,2.3 l -1.8,6.2 c -1.9,-1.1 -5,-2.1 -9.4,-2.1 -10.2,0 -15.7,7.5 -15.7,16.8 0,10.3 6.6,16.6 15.4,16.6 4.6,0 7.6,-1.2 9.9,-2.2 z"
   id="path4313"
   inkscape:connector-curvature="0"
   style="fill:#31ada8" />
		<path
   class="st0"
   d="m 682.9,80.4 c 0,4.6 0.1,8.6 0.4,12.1 h -7.2 l -0.5,-7.3 h -0.2 c -2.1,3.6 -6.8,8.3 -14.7,8.3 -7,0 -15.3,-3.9 -15.3,-19.5 V 48 h 8.1 v 24.6 c 0,8.5 2.6,14.2 9.9,14.2 5.4,0 9.2,-3.8 10.7,-7.3 0.5,-1.2 0.7,-2.7 0.7,-4.1 V 48 h 8.1 z"
   id="path4315"
   inkscape:connector-curvature="0"
   style="fill:#31ada8" />
		<path
   class="st0"
   d="m 704.3,74.7 c 0,1 0.2,2 0.4,2.9 1.6,5.6 6.2,9.5 12.1,9.5 8.5,0 13.5,-6.9 13.5,-17.1 0,-8.9 -4.6,-16.5 -13.2,-16.5 -5.5,0 -10.7,3.8 -12.3,9.9 -0.2,0.9 -0.5,2 -0.5,3.3 z m -8.4,17.8 c 0.2,-3 0.4,-7.5 0.4,-11.5 V 27.2 h 8 v 27.9 h 0.2 c 2.8,-5 8,-8.2 15.2,-8.2 11,0 18.8,9.2 18.8,22.7 0,15.9 -10,23.8 -19.9,23.8 -6.4,0 -11.6,-2.5 -14.9,-8.4 h -0.3 l -0.4,7.3 h -7.1 z"
   id="path4317"
   inkscape:connector-curvature="0"
   style="fill:#31ada8" />
		<path
   class="st0"
   d="m 772,69.8 c -8.8,-0.2 -18.8,1.4 -18.8,10 0,5.2 3.5,7.7 7.6,7.7 5.8,0 9.5,-3.7 10.8,-7.4 0.3,-0.8 0.5,-1.8 0.5,-2.6 v -7.7 z m 1.2,22.7 -0.6,-5.6 h -0.3 c -2.5,3.5 -7.3,6.6 -13.6,6.6 -9,0 -13.6,-6.3 -13.6,-12.8 0,-10.8 9.6,-16.6 26.7,-16.5 v -0.9 c 0,-3.7 -1,-10.3 -10.1,-10.3 -4.1,0 -8.4,1.3 -11.6,3.3 L 748.3,51 c 3.7,-2.4 9,-4 14.6,-4 13.6,0 16.9,9.3 16.9,18.2 v 16.6 c 0,3.9 0.2,7.6 0.7,10.7 z"
   id="path4319"
   inkscape:connector-curvature="0"
   style="fill:#31ada8" />
		<path
   class="st0"
   d="M 802.3,35.2 V 48 h 11.6 v 6.2 h -11.6 v 24 c 0,5.5 1.6,8.6 6.1,8.6 2.1,0 3.7,-0.3 4.7,-0.5 l 0.4,6.1 c -1.6,0.6 -4,1.1 -7.2,1.1 -3.8,0 -6.8,-1.2 -8.7,-3.4 -2.3,-2.4 -3.1,-6.3 -3.1,-11.6 V 54.2 h -6.9 V 48 h 6.9 V 37.3 Z"
   id="path4321"
   inkscape:connector-curvature="0"
   style="fill:#31ada8" />
		<path
   class="st0"
   d="m 827.4,70.3 c 0,9.8 5.6,17.1 13.5,17.1 7.7,0 13.5,-7.3 13.5,-17.3 0,-7.5 -3.8,-17.1 -13.3,-17.1 -9.6,0.1 -13.7,8.9 -13.7,17.3 m 35.2,-0.4 c 0,16.5 -11.4,23.6 -22.2,23.6 -12,0 -21.3,-8.8 -21.3,-22.9 0,-14.9 9.7,-23.6 22.1,-23.6 12.8,0 21.4,9.3 21.4,22.9"
   id="path4323"
   inkscape:connector-curvature="0"
   style="fill:#31ada8" />
		<path
   class="st0"
   d="m 872.8,61.9 c 0,-5.2 -0.1,-9.8 -0.4,-13.9 h 7.1 l 0.3,8.7 h 0.4 c 2,-6 6.9,-9.7 12.3,-9.7 0.9,0 1.6,0.1 2.3,0.3 v 7.6 c -0.8,-0.2 -1.7,-0.3 -2.8,-0.3 -5.7,0 -9.7,4.3 -10.8,10.4 -0.2,1.1 -0.4,2.4 -0.4,3.8 v 23.7 h -8 z"
   id="path4325"
   inkscape:connector-curvature="0"
   style="fill:#31ada8" />
	</g><g
       id="g4381">
	<path
   id="path4329"
   d="m 183.4,142.7 -2.8,8.5 H 177 l 9.2,-27.1 h 4.2 l 9.2,27.1 h -3.7 l -2.9,-8.5 z m 8.8,-2.8 -2.7,-7.8 c -0.6,-1.8 -1,-3.4 -1.4,-5 H 188 c -0.4,1.6 -0.8,3.3 -1.4,4.9 l -2.7,7.8 z"
   class="st1"
   inkscape:connector-curvature="0"
   style="fill:#6c6c6c" />
	<path
   id="path4331"
   d="m 212.1,124.4 c 1.7,-0.3 3.9,-0.5 6.7,-0.5 3.5,0 6,0.8 7.6,2.2 1.5,1.3 2.4,3.3 2.4,5.7 0,2.5 -0.7,4.4 -2.1,5.8 -1.8,2 -4.9,3 -8.3,3 -1,0 -2,0 -2.8,-0.2 v 10.9 h -3.5 z m 3.5,13.1 c 0.8,0.2 1.7,0.3 2.9,0.3 4.2,0 6.8,-2 6.8,-5.8 0,-3.6 -2.5,-5.3 -6.4,-5.3 -1.5,0 -2.7,0.1 -3.3,0.3 z"
   class="st1"
   inkscape:connector-curvature="0"
   style="fill:#6c6c6c" />
	<path
   id="path4333"
   d="m 232.7,137.8 c 0,-2.3 0,-4.3 -0.2,-6.1 h 3.1 l 0.1,3.8 h 0.2 c 0.9,-2.6 3,-4.3 5.4,-4.3 0.4,0 0.7,0 1,0.1 v 3.3 c -0.4,-0.1 -0.7,-0.1 -1.2,-0.1 -2.5,0 -4.3,1.9 -4.7,4.5 -0.1,0.5 -0.2,1 -0.2,1.7 v 10.4 h -3.5 z"
   class="st1"
   inkscape:connector-curvature="0"
   style="fill:#6c6c6c" />
	<path
   id="path4335"
   d="m 256.5,151.2 -0.3,-2.5 h -0.1 c -1.1,1.5 -3.2,2.9 -6,2.9 -3.9,0 -6,-2.8 -6,-5.6 0,-4.7 4.2,-7.3 11.7,-7.2 v -0.4 c 0,-1.6 -0.4,-4.5 -4.4,-4.5 -1.8,0 -3.7,0.6 -5.1,1.5 l -0.8,-2.3 c 1.6,-1 3.9,-1.7 6.4,-1.7 6,0 7.4,4.1 7.4,8 v 7.3 c 0,1.7 0.1,3.3 0.3,4.7 h -3.1 z m -0.6,-9.9 c -3.9,-0.1 -8.2,0.6 -8.2,4.4 0,2.3 1.5,3.4 3.3,3.4 2.5,0 4.1,-1.6 4.7,-3.3 0.1,-0.4 0.2,-0.8 0.2,-1.1 z"
   class="st1"
   inkscape:connector-curvature="0"
   style="fill:#6c6c6c" />
	<path
   id="path4337"
   d="m 281.8,131.7 c -0.1,1.4 -0.2,3 -0.2,5.3 v 11.3 c 0,4.5 -0.9,7.2 -2.8,8.9 -1.9,1.8 -4.6,2.3 -7.1,2.3 -2.3,0 -4.9,-0.6 -6.5,-1.6 l 0.9,-2.7 c 1.3,0.8 3.3,1.5 5.7,1.5 3.6,0 6.3,-1.9 6.3,-6.8 v -2.2 H 278 c -1.1,1.8 -3.2,3.3 -6.2,3.3 -4.8,0 -8.3,-4.1 -8.3,-9.5 0,-6.6 4.3,-10.3 8.8,-10.3 3.4,0 5.2,1.8 6.1,3.4 h 0.1 l 0.2,-2.9 z m -3.6,7.7 c 0,-0.6 0,-1.1 -0.2,-1.6 -0.6,-2 -2.4,-3.7 -5,-3.7 -3.4,0 -5.8,2.9 -5.8,7.4 0,3.8 1.9,7 5.8,7 2.2,0 4.1,-1.4 4.9,-3.6 0.2,-0.6 0.3,-1.3 0.3,-1.9 z"
   class="st1"
   inkscape:connector-curvature="0"
   style="fill:#6c6c6c" />
	<path
   id="path4339"
   d="m 287.3,137 c 0,-2 0,-3.7 -0.2,-5.3 h 3.1 l 0.2,3.1 h 0.1 c 1.1,-1.8 2.9,-3.6 6.1,-3.6 2.7,0 4.7,1.6 5.5,3.9 h 0.1 c 0.6,-1.1 1.4,-1.9 2.2,-2.5 1.2,-0.9 2.5,-1.4 4.3,-1.4 2.6,0 6.4,1.7 6.4,8.4 v 11.5 h -3.5 v -11 c 0,-3.7 -1.4,-6 -4.2,-6 -2,0 -3.6,1.5 -4.2,3.2 -0.2,0.5 -0.3,1.1 -0.3,1.8 v 12 h -3.5 v -11.7 c 0,-3.1 -1.4,-5.3 -4.1,-5.3 -2.2,0 -3.8,1.8 -4.4,3.5 -0.2,0.5 -0.3,1.1 -0.3,1.7 V 151 h -3.5 z"
   class="st1"
   inkscape:connector-curvature="0"
   style="fill:#6c6c6c" />
	<path
   id="path4341"
   d="m 331.6,151.2 -0.3,-2.5 h -0.1 c -1.1,1.5 -3.2,2.9 -6,2.9 -3.9,0 -6,-2.8 -6,-5.6 0,-4.7 4.2,-7.3 11.7,-7.2 v -0.4 c 0,-1.6 -0.4,-4.5 -4.4,-4.5 -1.8,0 -3.7,0.6 -5.1,1.5 l -0.8,-2.3 c 1.6,-1 3.9,-1.7 6.4,-1.7 6,0 7.4,4.1 7.4,8 v 7.3 c 0,1.7 0.1,3.3 0.3,4.7 h -3.1 z m -0.5,-9.9 c -3.9,-0.1 -8.2,0.6 -8.2,4.4 0,2.3 1.5,3.4 3.3,3.4 2.5,0 4.1,-1.6 4.7,-3.3 0.1,-0.4 0.2,-0.8 0.2,-1.1 z"
   class="st1"
   inkscape:connector-curvature="0"
   style="fill:#6c6c6c" />
	<path
   id="path4343"
   d="m 344.3,126.2 v 5.6 h 5.1 v 2.7 h -5.1 V 145 c 0,2.4 0.7,3.8 2.7,3.8 0.9,0 1.6,-0.1 2,-0.2 l 0.2,2.7 c -0.7,0.3 -1.8,0.5 -3.1,0.5 -1.7,0 -3,-0.5 -3.8,-1.5 -1,-1 -1.4,-2.8 -1.4,-5.1 v -10.6 h -3 v -2.7 h 3 v -4.7 z"
   class="st1"
   inkscape:connector-curvature="0"
   style="fill:#6c6c6c" />
	<path
   id="path4345"
   d="m 357.3,126.3 c 0,1.2 -0.8,2.2 -2.2,2.2 -1.2,0 -2.1,-1 -2.1,-2.2 0,-1.2 0.9,-2.2 2.2,-2.2 1.2,0 2.1,0.9 2.1,2.2 z m -4,24.9 v -19.5 h 3.5 v 19.5 z"
   class="st1"
   inkscape:connector-curvature="0"
   style="fill:#6c6c6c" />
	<path
   id="path4347"
   d="m 376.6,150.5 c -0.9,0.5 -3,1.1 -5.6,1.1 -5.9,0 -9.7,-4 -9.7,-9.9 0,-6 4.1,-10.3 10.5,-10.3 2.1,0 3.9,0.5 4.9,1 l -0.8,2.7 c -0.8,-0.5 -2.2,-0.9 -4.1,-0.9 -4.5,0 -6.9,3.3 -6.9,7.4 0,4.5 2.9,7.3 6.8,7.3 2,0 3.3,-0.5 4.3,-1 z"
   class="st1"
   inkscape:connector-curvature="0"
   style="fill:#6c6c6c" />
	<path
   id="path4349"
   d="m 392.9,124.1 v 27.1 h -3.5 v -27.1 z"
   class="st1"
   inkscape:connector-curvature="0"
   style="fill:#6c6c6c" />
	<path
   id="path4351"
   d="m 399.3,137 c 0,-2 0,-3.7 -0.2,-5.3 h 3.1 l 0.2,3.2 h 0.1 c 1,-1.8 3.2,-3.7 6.4,-3.7 2.7,0 6.9,1.6 6.9,8.3 v 11.6 h -3.5 V 140 c 0,-3.1 -1.2,-5.8 -4.5,-5.8 -2.3,0 -4.1,1.7 -4.7,3.6 -0.2,0.4 -0.2,1 -0.2,1.7 v 11.7 h -3.5 z"
   class="st1"
   inkscape:connector-curvature="0"
   style="fill:#6c6c6c" />
	<path
   id="path4353"
   d="m 421.1,147.6 c 1,0.7 2.9,1.4 4.7,1.4 2.6,0 3.8,-1.3 3.8,-2.9 0,-1.7 -1,-2.6 -3.6,-3.6 -3.5,-1.2 -5.2,-3.2 -5.2,-5.5 0,-3.1 2.5,-5.7 6.7,-5.7 2,0 3.7,0.6 4.8,1.2 l -0.9,2.6 c -0.8,-0.5 -2.2,-1.1 -4,-1.1 -2.1,0 -3.3,1.2 -3.3,2.7 0,1.6 1.2,2.3 3.7,3.3 3.4,1.3 5.1,3 5.1,5.9 0,3.4 -2.7,5.8 -7.3,5.8 -2.1,0 -4.1,-0.5 -5.5,-1.3 z"
   class="st1"
   inkscape:connector-curvature="0"
   style="fill:#6c6c6c" />
	<path
   id="path4355"
   d="m 441.8,126.2 v 5.6 h 5.1 v 2.7 h -5.1 V 145 c 0,2.4 0.7,3.8 2.7,3.8 0.9,0 1.6,-0.1 2,-0.2 l 0.2,2.7 c -0.7,0.3 -1.8,0.5 -3.1,0.5 -1.7,0 -3,-0.5 -3.8,-1.5 -1,-1 -1.4,-2.8 -1.4,-5.1 v -10.6 h -3 v -2.7 h 3 v -4.7 z"
   class="st1"
   inkscape:connector-curvature="0"
   style="fill:#6c6c6c" />
	<path
   id="path4357"
   d="m 454.8,126.3 c 0,1.2 -0.8,2.2 -2.2,2.2 -1.2,0 -2.1,-1 -2.1,-2.2 0,-1.2 0.9,-2.2 2.2,-2.2 1.2,0 2.1,0.9 2.1,2.2 z m -4,24.9 v -19.5 h 3.5 v 19.5 z"
   class="st1"
   inkscape:connector-curvature="0"
   style="fill:#6c6c6c" />
	<path
   id="path4359"
   d="m 464.5,126.2 v 5.6 h 5.1 v 2.7 h -5.1 V 145 c 0,2.4 0.7,3.8 2.7,3.8 0.9,0 1.6,-0.1 2,-0.2 l 0.2,2.7 c -0.7,0.3 -1.8,0.5 -3.1,0.5 -1.7,0 -3,-0.5 -3.8,-1.5 -1,-1 -1.4,-2.8 -1.4,-5.1 v -10.6 h -3 v -2.7 h 3 v -4.7 z"
   class="st1"
   inkscape:connector-curvature="0"
   style="fill:#6c6c6c" />
	<path
   id="path4361"
   d="m 489.8,145.9 c 0,2 0,3.8 0.2,5.3 h -3.1 l -0.2,-3.2 h -0.1 c -0.9,1.6 -3,3.6 -6.4,3.6 -3.1,0 -6.7,-1.7 -6.7,-8.5 v -11.4 h 3.5 v 10.8 c 0,3.7 1.1,6.2 4.3,6.2 2.4,0 4,-1.7 4.7,-3.2 0.2,-0.5 0.3,-1.2 0.3,-1.8 v -11.9 h 3.5 z"
   class="st1"
   inkscape:connector-curvature="0"
   style="fill:#6c6c6c" />
	<path
   id="path4363"
   d="m 500,126.2 v 5.6 h 5.1 v 2.7 H 500 V 145 c 0,2.4 0.7,3.8 2.7,3.8 0.9,0 1.6,-0.1 2,-0.2 l 0.2,2.7 c -0.7,0.3 -1.8,0.5 -3.1,0.5 -1.7,0 -3,-0.5 -3.8,-1.5 -1,-1 -1.4,-2.8 -1.4,-5.1 v -10.6 h -3 v -2.7 h 3 v -4.7 z"
   class="st1"
   inkscape:connector-curvature="0"
   style="fill:#6c6c6c" />
	<path
   id="path4365"
   d="m 510.8,142.1 c 0.1,4.8 3.1,6.8 6.7,6.8 2.5,0 4.1,-0.4 5.4,-1 l 0.6,2.5 c -1.2,0.6 -3.4,1.2 -6.5,1.2 -6,0 -9.6,-3.9 -9.6,-9.8 0,-5.9 3.5,-10.5 9.1,-10.5 6.3,0 8,5.6 8,9.2 0,0.7 -0.1,1.3 -0.1,1.7 z m 10.3,-2.5 c 0,-2.2 -0.9,-5.8 -4.9,-5.8 -3.6,0 -5.2,3.3 -5.4,5.8 z"
   class="st1"
   inkscape:connector-curvature="0"
   style="fill:#6c6c6c" />
	<path
   id="path4367"
   d="m 556.5,150.3 c -1.3,0.6 -3.9,1.3 -7.2,1.3 -7.6,0 -13.4,-4.8 -13.4,-13.7 0,-8.5 5.8,-14.2 14.2,-14.2 3.4,0 5.5,0.7 6.4,1.2 l -0.8,2.9 c -1.3,-0.6 -3.2,-1.1 -5.5,-1.1 -6.3,0 -10.6,4.1 -10.6,11.2 0,6.6 3.8,10.9 10.4,10.9 2.1,0 4.3,-0.4 5.7,-1.1 z"
   class="st1"
   inkscape:connector-curvature="0"
   style="fill:#6c6c6c" />
	<path
   id="path4369"
   d="m 577.9,141.3 c 0,7.2 -5,10.3 -9.7,10.3 -5.3,0 -9.3,-3.9 -9.3,-10 0,-6.5 4.3,-10.3 9.7,-10.3 5.6,0 9.3,4.1 9.3,10 z m -15.4,0.2 c 0,4.3 2.4,7.5 5.9,7.5 3.4,0 5.9,-3.2 5.9,-7.6 0,-3.3 -1.7,-7.5 -5.8,-7.5 -4.2,0 -6,3.9 -6,7.6 z"
   class="st1"
   inkscape:connector-curvature="0"
   style="fill:#6c6c6c" />
	<path
   id="path4371"
   d="m 582.4,137 c 0,-2 0,-3.7 -0.2,-5.3 h 3.1 l 0.2,3.1 h 0.1 c 1.1,-1.8 2.9,-3.6 6.1,-3.6 2.7,0 4.7,1.6 5.5,3.9 h 0.1 c 0.6,-1.1 1.4,-1.9 2.2,-2.5 1.2,-0.9 2.4,-1.4 4.3,-1.4 2.6,0 6.4,1.7 6.4,8.4 v 11.5 h -3.5 v -11 c 0,-3.7 -1.4,-6 -4.2,-6 -2,0 -3.6,1.5 -4.2,3.2 -0.2,0.5 -0.3,1.1 -0.3,1.8 v 12 h -3.5 v -11.7 c 0,-3.1 -1.4,-5.3 -4.1,-5.3 -2.2,0 -3.8,1.8 -4.4,3.5 -0.2,0.5 -0.3,1.1 -0.3,1.7 V 151 h -3.5 v -14 z"
   class="st1"
   inkscape:connector-curvature="0"
   style="fill:#6c6c6c" />
	<path
   id="path4373"
   d="m 615.9,138.1 c 0,-2.5 -0.1,-4.5 -0.2,-6.3 h 3.2 l 0.2,3.3 h 0.1 c 1.4,-2.4 3.7,-3.8 6.9,-3.8 4.7,0 8.2,4 8.2,9.9 0,7 -4.3,10.5 -8.8,10.5 -2.6,0 -4.8,-1.1 -6,-3 h -0.1 v 10.6 h -3.5 z m 3.5,5.2 c 0,0.5 0.1,1 0.2,1.5 0.6,2.5 2.8,4.1 5.3,4.1 3.7,0 5.9,-3.1 5.9,-7.5 0,-3.9 -2.1,-7.2 -5.8,-7.2 -2.4,0 -4.7,1.7 -5.3,4.4 -0.1,0.4 -0.2,1 -0.2,1.5 z"
   class="st1"
   inkscape:connector-curvature="0"
   style="fill:#6c6c6c" />
	<path
   id="path4375"
   d="m 649.6,151.2 -0.3,-2.5 h -0.1 c -1.1,1.5 -3.2,2.9 -5.9,2.9 -3.9,0 -5.9,-2.8 -5.9,-5.6 0,-4.7 4.2,-7.3 11.7,-7.2 v -0.4 c 0,-1.6 -0.4,-4.5 -4.4,-4.5 -1.8,0 -3.7,0.6 -5.1,1.5 l -0.8,-2.3 c 1.6,-1 3.9,-1.7 6.4,-1.7 5.9,0 7.4,4.1 7.4,8 v 7.3 c 0,1.7 0.1,3.3 0.3,4.7 h -3.3 z m -0.5,-9.9 c -3.9,-0.1 -8.2,0.6 -8.2,4.4 0,2.3 1.5,3.4 3.3,3.4 2.5,0 4.1,-1.6 4.7,-3.3 0.1,-0.4 0.2,-0.8 0.2,-1.1 z"
   class="st1"
   inkscape:connector-curvature="0"
   style="fill:#6c6c6c" />
	<path
   id="path4377"
   d="m 658.2,137 c 0,-2 0,-3.7 -0.2,-5.3 h 3.1 l 0.2,3.2 h 0.1 c 1,-1.8 3.2,-3.7 6.4,-3.7 2.7,0 6.9,1.6 6.9,8.3 v 11.6 h -3.5 V 140 c 0,-3.1 -1.2,-5.8 -4.5,-5.8 -2.3,0 -4.1,1.7 -4.7,3.6 -0.2,0.4 -0.2,1 -0.2,1.7 v 11.7 h -3.5 z"
   class="st1"
   inkscape:connector-curvature="0"
   style="fill:#6c6c6c" />
	<path
   id="path4379"
   d="m 681.3,131.7 4.3,11.5 c 0.4,1.3 0.9,2.8 1.2,4 h 0.1 c 0.4,-1.2 0.8,-2.7 1.2,-4.1 l 3.9,-11.4 h 3.7 l -5.3,13.9 c -2.5,6.7 -4.3,10.1 -6.7,12.2 -1.7,1.5 -3.5,2.1 -4.3,2.3 l -0.9,-3 c 0.9,-0.3 2.1,-0.8 3.1,-1.7 1,-0.8 2.2,-2.1 3,-3.9 0.2,-0.4 0.3,-0.6 0.3,-0.8 0,-0.2 -0.1,-0.5 -0.2,-0.9 l -7.2,-17.9 h 3.8 z"
   class="st1"
   inkscape:connector-curvature="0"
   style="fill:#6c6c6c" />
</g></g></clipPath>
	
	
	
	
	
	
	
	
	
	
	
	
	
	
	
	
	
	
	
	
	
	
	
	
	
	
</defs><sodipodi:namedview
   pagecolor="#ffffff"
   bordercolor="#666666"
   borderopacity="1"
   objecttolerance="10"
   gridtolerance="10"
   guidetolerance="10"
   inkscape:pageopacity="0"
   inkscape:pageshadow="2"
   inkscape:window-width="1853"
   inkscape:window-height="1025"
   id="namedview3959"
   showgrid="false"
   inkscape:zoom="1.8713841"
   inkscape:cx="431.09288"
   inkscape:cy="85.050003"
   inkscape:window-x="67"
   inkscape:window-y="27"
   inkscape:window-maximized="1"
   inkscape:current-layer="Layer_1" />
<style
   type="text/css"
   id="style3858">
	.st0{fill:#31ADA8;}
	.st1{fill:#6C6C6C;}
</style>
<g
   id="g3864"
   transform="matrix(1.1719577,0,0,1.1719577,-4.6629492,12.740213)">
		<path
   style="fill:#31ada8"
   inkscape:connector-curvature="0"
   id="path3860"
   d="M 106.4,5 C 100.5,5 95,7.6 91.2,12.1 L 75.3,31.2 63.4,22.4 C 60,19.9 55.9,18.6 51.7,18.6 c -5.9,0 -11.4,2.6 -15.2,7.1 L 8.5,59.2 C 1.6,67.5 2.7,80 11.1,87 c 3.5,3 8,4.6 12.7,4.6 5.9,0 11.4,-2.6 15.2,-7.1 L 55.1,65.3 66.9,74 c 3.4,2.5 7.5,3.8 11.7,3.8 5.9,0 11.4,-2.6 15.2,-7.1 l 27.8,-33.4 c 3.4,-4 5,-9.2 4.5,-14.4 -0.5,-5.2 -3,-10 -7,-13.4 C 115.5,6.6 111,5 106.4,5 m 0,13.2 c 1.5,0 3,0.5 4.2,1.5 2.8,2.3 3.2,6.5 0.8,9.3 L 83.6,62.4 c -1.3,1.6 -3.2,2.4 -5.1,2.4 -1.4,0 -2.7,-0.4 -3.9,-1.3 L 52.8,47.4 28.8,76.1 c -1.3,1.6 -3.2,2.4 -5,2.4 -1.5,0 -3,-0.5 -4.2,-1.5 -2.8,-2.3 -3.2,-6.5 -0.8,-9.3 l 28,-33.5 c 1.3,-1.5 3.2,-2.4 5,-2.4 1.4,0 2.7,0.4 3.9,1.3 l 21.9,16.1 23.9,-28.6 c 1.1,-1.6 3,-2.4 4.9,-2.4"
   class="st0" />
		<path
   style="fill:#31ada8"
   inkscape:connector-curvature="0"
   id="path3862"
   d="M 113.9,118.4 H 16.3 c -3.6,0 -6.6,-3 -6.6,-6.6 0,-3.6 3,-6.6 6.6,-6.6 h 97.6 c 3.6,0 6.6,3 6.6,6.6 0,3.6 -3,6.6 -6.6,6.6"
   class="st0" />
	</g>
<g
   id="g3900"
   transform="translate(3.9999878,-8.5999969)">
		<polygon
   class="st0"
   points="162.8,30.6 162.8,37.4 181.7,37.4 181.7,92.5 189.7,92.5 189.7,37.4 208.7,37.4 208.7,30.6 "
   id="polygon3866"
   style="fill:#31ada8" />
		<g
   id="g3880">
			<path
   class="st0"
   d="m 214.6,27.2 h 8.1 V 55 h 0.2 c 1.3,-2.3 3.3,-4.3 5.8,-5.7 2.4,-1.4 5.2,-2.3 8.3,-2.3 6,0 15.5,3.7 15.5,19 v 26.5 h -8.1 V 67 c 0,-7.2 -2.7,-13.2 -10.3,-13.2 -5.2,0 -9.4,3.7 -10.8,8.1 -0.5,1.1 -0.5,2.3 -0.5,3.9 v 26.8 h -8.1 V 27.2 Z"
   id="path3868"
   inkscape:connector-curvature="0"
   style="fill:#31ada8" />
			<path
   class="st0"
   d="m 293.9,65.9 c 0.1,-5.1 -2.1,-13.1 -11.2,-13.1 -8.2,0 -11.8,7.5 -12.4,13.1 z m -23.7,5.8 c 0.2,10.9 7.2,15.4 15.3,15.4 5.8,0 9.3,-1 12.3,-2.3 l 1.4,5.8 c -2.8,1.3 -7.7,2.8 -14.8,2.8 -13.7,0 -21.9,-9 -21.9,-22.4 0,-13.4 7.9,-24 20.9,-24 14.5,0 18.4,12.8 18.4,21 0,1.6 -0.2,2.9 -0.3,3.8 z"
   id="path3870"
   inkscape:connector-curvature="0"
   style="fill:#31ada8" />
			<path
   class="st0"
   d="m 339.5,86.2 c 2,0.4 5,0.5 8.1,0.5 17.1,0 26.4,-9.6 26.4,-26.3 0.1,-14.6 -8.2,-23.9 -25.1,-23.9 -4.1,0 -7.3,0.4 -9.4,0.8 z m -8,-54.8 c 4.9,-0.7 10.7,-1.3 17,-1.3 11.5,0 19.7,2.7 25.1,7.7 5.5,5.1 8.7,12.2 8.7,22.2 0,10.1 -3.1,18.4 -8.9,24.1 -5.8,5.8 -15.4,8.9 -27.4,8.9 -5.7,0 -10.5,-0.3 -14.5,-0.7 z"
   id="path3872"
   inkscape:connector-curvature="0"
   style="fill:#31ada8" />
			<path
   class="st0"
   d="m 415.9,69.8 c -8.8,-0.2 -18.8,1.4 -18.8,10 0,5.2 3.5,7.7 7.6,7.7 5.8,0 9.5,-3.7 10.8,-7.4 0.3,-0.8 0.5,-1.8 0.5,-2.6 z m 1.1,22.7 -0.6,-5.6 h -0.3 c -2.5,3.5 -7.3,6.6 -13.6,6.6 -9,0 -13.6,-6.3 -13.6,-12.8 0,-10.8 9.6,-16.6 26.7,-16.5 v -0.9 c 0,-3.7 -1,-10.3 -10.1,-10.3 -4.1,0 -8.5,1.3 -11.6,3.3 L 392.1,51 c 3.7,-2.4 9,-4 14.6,-4 13.6,0 16.9,9.3 16.9,18.2 v 16.6 c 0,3.9 0.2,7.6 0.7,10.7 z"
   id="path3874"
   inkscape:connector-curvature="0"
   style="fill:#31ada8" />
			<path
   class="st0"
   d="M 446.1,35.2 V 48 h 11.6 v 6.2 h -11.6 v 24 c 0,5.5 1.6,8.6 6.1,8.6 2.1,0 3.7,-0.3 4.7,-0.5 l 0.4,6.1 c -1.6,0.6 -4,1.1 -7.2,1.1 -3.8,0 -6.8,-1.2 -8.7,-3.4 -2.3,-2.4 -3.1,-6.3 -3.1,-11.6 V 54.2 h -6.9 V 48 h 6.9 V 37.3 Z"
   id="path3876"
   inkscape:connector-curvature="0"
   style="fill:#31ada8" />
			<path
   class="st0"
   d="m 490.2,69.8 c -8.8,-0.2 -18.8,1.4 -18.8,10 0,5.2 3.5,7.7 7.6,7.7 5.8,0 9.5,-3.7 10.8,-7.4 0.3,-0.8 0.5,-1.8 0.5,-2.6 z m 1.2,22.7 -0.6,-5.6 h -0.3 c -2.5,3.5 -7.3,6.6 -13.6,6.6 -9,0 -13.6,-6.3 -13.6,-12.8 0,-10.8 9.6,-16.6 26.7,-16.5 V 63.3 C 490,59.6 489,53 479.9,53 c -4.1,0 -8.5,1.3 -11.6,3.3 L 466.5,51 c 3.7,-2.4 9,-4 14.6,-4 13.6,0 16.9,9.3 16.9,18.2 v 16.6 c 0,3.9 0.2,7.6 0.7,10.7 z"
   id="path3878"
   inkscape:connector-curvature="0"
   style="fill:#31ada8" />
		</g>
		<rect
   x="530.79999"
   y="30.6"
   class="st0"
   width="8"
   height="62"
   id="rect3882"
   style="fill:#31ada8" />
		<path
   class="st0"
   d="m 553.4,60.1 c 0,-4.6 -0.1,-8.4 -0.4,-12 h 7.2 l 0.5,7.4 h 0.2 c 2.2,-4.2 7.4,-8.4 14.7,-8.4 6.2,0 15.7,3.7 15.7,18.9 v 26.6 h -8.1 V 66.9 c 0,-7.2 -2.7,-13.1 -10.3,-13.1 -5.3,0 -9.5,3.8 -10.8,8.3 -0.4,1 -0.6,2.4 -0.6,3.8 v 26.7 h -8.1 z"
   id="path3884"
   inkscape:connector-curvature="0"
   style="fill:#31ada8" />
		<path
   class="st0"
   d="m 636.2,90.8 c -2.1,1.1 -6.8,2.6 -12.8,2.6 -13.4,0 -22.2,-9.1 -22.2,-22.7 0,-13.7 9.4,-23.6 23.9,-23.6 4.8,0 9,1.2 11.2,2.3 l -1.8,6.2 c -1.9,-1.1 -5,-2.1 -9.4,-2.1 -10.2,0 -15.7,7.5 -15.7,16.8 0,10.3 6.6,16.6 15.4,16.6 4.6,0 7.6,-1.2 9.9,-2.2 z"
   id="path3886"
   inkscape:connector-curvature="0"
   style="fill:#31ada8" />
		<path
   class="st0"
   d="m 682.9,80.4 c 0,4.6 0.1,8.6 0.4,12.1 h -7.2 l -0.5,-7.3 h -0.2 c -2.1,3.6 -6.8,8.3 -14.7,8.3 -7,0 -15.3,-3.9 -15.3,-19.5 V 48 h 8.1 v 24.6 c 0,8.5 2.6,14.2 9.9,14.2 5.4,0 9.2,-3.8 10.7,-7.3 0.5,-1.2 0.7,-2.7 0.7,-4.1 V 48 h 8.1 z"
   id="path3888"
   inkscape:connector-curvature="0"
   style="fill:#31ada8" />
		<path
   class="st0"
   d="m 704.3,74.7 c 0,1 0.2,2 0.4,2.9 1.6,5.6 6.2,9.5 12.1,9.5 8.5,0 13.5,-6.9 13.5,-17.1 0,-8.9 -4.6,-16.5 -13.2,-16.5 -5.5,0 -10.7,3.8 -12.3,9.9 -0.2,0.9 -0.5,2 -0.5,3.3 z m -8.4,17.8 c 0.2,-3 0.4,-7.5 0.4,-11.5 V 27.2 h 8 v 27.9 h 0.2 c 2.8,-5 8,-8.2 15.2,-8.2 11,0 18.8,9.2 18.8,22.7 0,15.9 -10,23.8 -19.9,23.8 -6.4,0 -11.6,-2.5 -14.9,-8.4 h -0.3 l -0.4,7.3 h -7.1 z"
   id="path3890"
   inkscape:connector-curvature="0"
   style="fill:#31ada8" />
		<path
   class="st0"
   d="m 772,69.8 c -8.8,-0.2 -18.8,1.4 -18.8,10 0,5.2 3.5,7.7 7.6,7.7 5.8,0 9.5,-3.7 10.8,-7.4 0.3,-0.8 0.5,-1.8 0.5,-2.6 v -7.7 z m 1.2,22.7 -0.6,-5.6 h -0.3 c -2.5,3.5 -7.3,6.6 -13.6,6.6 -9,0 -13.6,-6.3 -13.6,-12.8 0,-10.8 9.6,-16.6 26.7,-16.5 v -0.9 c 0,-3.7 -1,-10.3 -10.1,-10.3 -4.1,0 -8.4,1.3 -11.6,3.3 L 748.3,51 c 3.7,-2.4 9,-4 14.6,-4 13.6,0 16.9,9.3 16.9,18.2 v 16.6 c 0,3.9 0.2,7.6 0.7,10.7 z"
   id="path3892"
   inkscape:connector-curvature="0"
   style="fill:#31ada8" />
		<path
   class="st0"
   d="M 802.3,35.2 V 48 h 11.6 v 6.2 h -11.6 v 24 c 0,5.5 1.6,8.6 6.1,8.6 2.1,0 3.7,-0.3 4.7,-0.5 l 0.4,6.1 c -1.6,0.6 -4,1.1 -7.2,1.1 -3.8,0 -6.8,-1.2 -8.7,-3.4 -2.3,-2.4 -3.1,-6.3 -3.1,-11.6 V 54.2 h -6.9 V 48 h 6.9 V 37.3 Z"
   id="path3894"
   inkscape:connector-curvature="0"
   style="fill:#31ada8" />
		<path
   class="st0"
   d="m 827.4,70.3 c 0,9.8 5.6,17.1 13.5,17.1 7.7,0 13.5,-7.3 13.5,-17.3 0,-7.5 -3.8,-17.1 -13.3,-17.1 -9.6,0.1 -13.7,8.9 -13.7,17.3 m 35.2,-0.4 c 0,16.5 -11.4,23.6 -22.2,23.6 -12,0 -21.3,-8.8 -21.3,-22.9 0,-14.9 9.7,-23.6 22.1,-23.6 12.8,0 21.4,9.3 21.4,22.9"
   id="path3896"
   inkscape:connector-curvature="0"
   style="fill:#31ada8" />
		<path
   class="st0"
   d="m 872.8,61.9 c 0,-5.2 -0.1,-9.8 -0.4,-13.9 h 7.1 l 0.3,8.7 h 0.4 c 2,-6 6.9,-9.7 12.3,-9.7 0.9,0 1.6,0.1 2.3,0.3 v 7.6 c -0.8,-0.2 -1.7,-0.3 -2.8,-0.3 -5.7,0 -9.7,4.3 -10.8,10.4 -0.2,1.1 -0.4,2.4 -0.4,3.8 v 23.7 h -8 z"
   id="path3898"
   inkscape:connector-curvature="0"
   style="fill:#31ada8" />
	</g><g
   id="g4482"><path
     id="path3904"
     d="m 187.39999,134.1 -2.8,8.5 h -3.6 l 9.2,-27.1 h 4.2 l 9.2,27.1 h -3.7 l -2.9,-8.5 z m 8.8,-2.8 -2.7,-7.8 c -0.6,-1.8 -1,-3.4 -1.4,-5 h -0.1 c -0.4,1.6 -0.8,3.3 -1.4,4.9 l -2.7,7.8 z"
     class="st1"
     inkscape:connector-curvature="0"
     style="fill:#6c6c6c" /><path
     id="path3906"
     d="m 216.09999,115.8 c 1.7,-0.3 3.9,-0.5 6.7,-0.5 3.5,0 6,0.8 7.6,2.2 1.5,1.3 2.4,3.3 2.4,5.7 0,2.5 -0.7,4.4 -2.1,5.8 -1.8,2 -4.9,3 -8.3,3 -1,0 -2,0 -2.8,-0.2 v 10.9 h -3.5 z m 3.5,13.1 c 0.8,0.2 1.7,0.3 2.9,0.3 4.2,0 6.8,-2 6.8,-5.8 0,-3.6 -2.5,-5.3 -6.4,-5.3 -1.5,0 -2.7,0.1 -3.3,0.3 z"
     class="st1"
     inkscape:connector-curvature="0"
     style="fill:#6c6c6c" /><path
     id="path3908"
     d="m 236.69999,129.2 c 0,-2.3 0,-4.3 -0.2,-6.1 h 3.1 l 0.1,3.8 h 0.2 c 0.9,-2.6 3,-4.3 5.4,-4.3 0.4,0 0.7,0 1,0.1 v 3.3 c -0.4,-0.1 -0.7,-0.1 -1.2,-0.1 -2.5,0 -4.3,1.9 -4.7,4.5 -0.1,0.5 -0.2,1 -0.2,1.7 v 10.4 h -3.5 z"
     class="st1"
     inkscape:connector-curvature="0"
     style="fill:#6c6c6c" /><path
     id="path3910"
     d="m 260.49999,142.6 -0.3,-2.5 h -0.1 c -1.1,1.5 -3.2,2.9 -6,2.9 -3.9,0 -6,-2.8 -6,-5.6 0,-4.7 4.2,-7.3 11.7,-7.2 v -0.4 c 0,-1.6 -0.4,-4.5 -4.4,-4.5 -1.8,0 -3.7,0.6 -5.1,1.5 l -0.8,-2.3 c 1.6,-1 3.9,-1.7 6.4,-1.7 6,0 7.4,4.1 7.4,8 v 7.3 c 0,1.7 0.1,3.3 0.3,4.7 h -3.1 z m -0.6,-9.9 c -3.9,-0.1 -8.2,0.6 -8.2,4.4 0,2.3 1.5,3.4 3.3,3.4 2.5,0 4.1,-1.6 4.7,-3.3 0.1,-0.4 0.2,-0.8 0.2,-1.1 z"
     class="st1"
     inkscape:connector-curvature="0"
     style="fill:#6c6c6c" /><path
     id="path3912"
     d="m 285.79999,123.1 c -0.1,1.4 -0.2,3 -0.2,5.3 v 11.3 c 0,4.5 -0.9,7.2 -2.8,8.9 -1.9,1.8 -4.6,2.3 -7.1,2.3 -2.3,0 -4.9,-0.6 -6.5,-1.6 l 0.9,-2.7 c 1.3,0.8 3.3,1.5 5.7,1.5 3.6,0 6.3,-1.9 6.3,-6.8 v -2.2 h -0.1 c -1.1,1.8 -3.2,3.3 -6.2,3.3 -4.8,0 -8.3,-4.1 -8.3,-9.5 0,-6.6 4.3,-10.3 8.8,-10.3 3.4,0 5.2,1.8 6.1,3.4 h 0.1 l 0.2,-2.9 z m -3.6,7.7 c 0,-0.6 0,-1.1 -0.2,-1.6 -0.6,-2 -2.4,-3.7 -5,-3.7 -3.4,0 -5.8,2.9 -5.8,7.4 0,3.8 1.9,7 5.8,7 2.2,0 4.1,-1.4 4.9,-3.6 0.2,-0.6 0.3,-1.3 0.3,-1.9 z"
     class="st1"
     inkscape:connector-curvature="0"
     style="fill:#6c6c6c" /><path
     id="path3914"
     d="m 291.29999,128.4 c 0,-2 0,-3.7 -0.2,-5.3 h 3.1 l 0.2,3.1 h 0.1 c 1.1,-1.8 2.9,-3.6 6.1,-3.6 2.7,0 4.7,1.6 5.5,3.9 h 0.1 c 0.6,-1.1 1.4,-1.9 2.2,-2.5 1.2,-0.9 2.5,-1.4 4.3,-1.4 2.6,0 6.4,1.7 6.4,8.4 v 11.5 h -3.5 v -11 c 0,-3.7 -1.4,-6 -4.2,-6 -2,0 -3.6,1.5 -4.2,3.2 -0.2,0.5 -0.3,1.1 -0.3,1.8 v 12 h -3.5 v -11.7 c 0,-3.1 -1.4,-5.3 -4.1,-5.3 -2.2,0 -3.8,1.8 -4.4,3.5 -0.2,0.5 -0.3,1.1 -0.3,1.7 v 11.7 h -3.5 z"
     class="st1"
     inkscape:connector-curvature="0"
     style="fill:#6c6c6c" /><path
     id="path3916"
     d="m 335.59999,142.6 -0.3,-2.5 h -0.1 c -1.1,1.5 -3.2,2.9 -6,2.9 -3.9,0 -6,-2.8 -6,-5.6 0,-4.7 4.2,-7.3 11.7,-7.2 v -0.4 c 0,-1.6 -0.4,-4.5 -4.4,-4.5 -1.8,0 -3.7,0.6 -5.1,1.5 l -0.8,-2.3 c 1.6,-1 3.9,-1.7 6.4,-1.7 6,0 7.4,4.1 7.4,8 v 7.3 c 0,1.7 0.1,3.3 0.3,4.7 h -3.1 z m -0.5,-9.9 c -3.9,-0.1 -8.2,0.6 -8.2,4.4 0,2.3 1.5,3.4 3.3,3.4 2.5,0 4.1,-1.6 4.7,-3.3 0.1,-0.4 0.2,-0.8 0.2,-1.1 z"
     class="st1"
     inkscape:connector-curvature="0"
     style="fill:#6c6c6c" /><path
     id="path3918"
     d="m 348.29999,117.6 v 5.6 h 5.1 v 2.7 h -5.1 v 10.5 c 0,2.4 0.7,3.8 2.7,3.8 0.9,0 1.6,-0.1 2,-0.2 l 0.2,2.7 c -0.7,0.3 -1.8,0.5 -3.1,0.5 -1.7,0 -3,-0.5 -3.8,-1.5 -1,-1 -1.4,-2.8 -1.4,-5.1 V 126 h -3 v -2.7 h 3 v -4.7 z"
     class="st1"
     inkscape:connector-curvature="0"
     style="fill:#6c6c6c" /><path
     id="path3920"
     d="m 361.29999,117.7 c 0,1.2 -0.8,2.2 -2.2,2.2 -1.2,0 -2.1,-1 -2.1,-2.2 0,-1.2 0.9,-2.2 2.2,-2.2 1.2,0 2.1,0.9 2.1,2.2 z m -4,24.9 v -19.5 h 3.5 v 19.5 z"
     class="st1"
     inkscape:connector-curvature="0"
     style="fill:#6c6c6c" /><path
     id="path3922"
     d="m 380.59999,141.9 c -0.9,0.5 -3,1.1 -5.6,1.1 -5.9,0 -9.7,-4 -9.7,-9.9 0,-6 4.1,-10.3 10.5,-10.3 2.1,0 3.9,0.5 4.9,1 l -0.8,2.7 c -0.8,-0.5 -2.2,-0.9 -4.1,-0.9 -4.5,0 -6.9,3.3 -6.9,7.4 0,4.5 2.9,7.3 6.8,7.3 2,0 3.3,-0.5 4.3,-1 z"
     class="st1"
     inkscape:connector-curvature="0"
     style="fill:#6c6c6c" /><path
     id="path3924"
     d="m 396.89999,115.5 v 27.1 h -3.5 v -27.1 z"
     class="st1"
     inkscape:connector-curvature="0"
     style="fill:#6c6c6c" /><path
     id="path3926"
     d="m 403.29999,128.4 c 0,-2 0,-3.7 -0.2,-5.3 h 3.1 l 0.2,3.2 h 0.1 c 1,-1.8 3.2,-3.7 6.4,-3.7 2.7,0 6.9,1.6 6.9,8.3 v 11.6 h -3.5 v -11.1 c 0,-3.1 -1.2,-5.8 -4.5,-5.8 -2.3,0 -4.1,1.7 -4.7,3.6 -0.2,0.4 -0.2,1 -0.2,1.7 v 11.7 h -3.5 z"
     class="st1"
     inkscape:connector-curvature="0"
     style="fill:#6c6c6c" /><path
     id="path3928"
     d="m 425.09999,139 c 1,0.7 2.9,1.4 4.7,1.4 2.6,0 3.8,-1.3 3.8,-2.9 0,-1.7 -1,-2.6 -3.6,-3.6 -3.5,-1.2 -5.2,-3.2 -5.2,-5.5 0,-3.1 2.5,-5.7 6.7,-5.7 2,0 3.7,0.6 4.8,1.2 l -0.9,2.6 c -0.8,-0.5 -2.2,-1.1 -4,-1.1 -2.1,0 -3.3,1.2 -3.3,2.7 0,1.6 1.2,2.3 3.7,3.3 3.4,1.3 5.1,3 5.1,5.9 0,3.4 -2.7,5.8 -7.3,5.8 -2.1,0 -4.1,-0.5 -5.5,-1.3 z"
     class="st1"
     inkscape:connector-curvature="0"
     style="fill:#6c6c6c" /><path
     id="path3930"
     d="m 445.79999,117.6 v 5.6 h 5.1 v 2.7 h -5.1 v 10.5 c 0,2.4 0.7,3.8 2.7,3.8 0.9,0 1.6,-0.1 2,-0.2 l 0.2,2.7 c -0.7,0.3 -1.8,0.5 -3.1,0.5 -1.7,0 -3,-0.5 -3.8,-1.5 -1,-1 -1.4,-2.8 -1.4,-5.1 V 126 h -3 v -2.7 h 3 v -4.7 z"
     class="st1"
     inkscape:connector-curvature="0"
     style="fill:#6c6c6c" /><path
     id="path3932"
     d="m 458.79999,117.7 c 0,1.2 -0.8,2.2 -2.2,2.2 -1.2,0 -2.1,-1 -2.1,-2.2 0,-1.2 0.9,-2.2 2.2,-2.2 1.2,0 2.1,0.9 2.1,2.2 z m -4,24.9 v -19.5 h 3.5 v 19.5 z"
     class="st1"
     inkscape:connector-curvature="0"
     style="fill:#6c6c6c" /><path
     id="path3934"
     d="m 468.49999,117.6 v 5.6 h 5.1 v 2.7 h -5.1 v 10.5 c 0,2.4 0.7,3.8 2.7,3.8 0.9,0 1.6,-0.1 2,-0.2 l 0.2,2.7 c -0.7,0.3 -1.8,0.5 -3.1,0.5 -1.7,0 -3,-0.5 -3.8,-1.5 -1,-1 -1.4,-2.8 -1.4,-5.1 V 126 h -3 v -2.7 h 3 v -4.7 z"
     class="st1"
     inkscape:connector-curvature="0"
     style="fill:#6c6c6c" /><path
     id="path3936"
     d="m 493.79999,137.3 c 0,2 0,3.8 0.2,5.3 h -3.1 l -0.2,-3.2 h -0.1 c -0.9,1.6 -3,3.6 -6.4,3.6 -3.1,0 -6.7,-1.7 -6.7,-8.5 v -11.4 h 3.5 v 10.8 c 0,3.7 1.1,6.2 4.3,6.2 2.4,0 4,-1.7 4.7,-3.2 0.2,-0.5 0.3,-1.2 0.3,-1.8 v -11.9 h 3.5 z"
     class="st1"
     inkscape:connector-curvature="0"
     style="fill:#6c6c6c" /><path
     id="path3938"
     d="m 503.99999,117.6 v 5.6 h 5.1 v 2.7 h -5.1 v 10.5 c 0,2.4 0.7,3.8 2.7,3.8 0.9,0 1.6,-0.1 2,-0.2 l 0.2,2.7 c -0.7,0.3 -1.8,0.5 -3.1,0.5 -1.7,0 -3,-0.5 -3.8,-1.5 -1,-1 -1.4,-2.8 -1.4,-5.1 V 126 h -3 v -2.7 h 3 v -4.7 z"
     class="st1"
     inkscape:connector-curvature="0"
     style="fill:#6c6c6c" /><path
     id="path3940"
     d="m 514.79999,133.5 c 0.1,4.8 3.1,6.8 6.7,6.8 2.5,0 4.1,-0.4 5.4,-1 l 0.6,2.5 c -1.2,0.6 -3.4,1.2 -6.5,1.2 -6,0 -9.6,-3.9 -9.6,-9.8 0,-5.9 3.5,-10.5 9.1,-10.5 6.3,0 8,5.6 8,9.2 0,0.7 -0.1,1.3 -0.1,1.7 z m 10.3,-2.5 c 0,-2.2 -0.9,-5.8 -4.9,-5.8 -3.6,0 -5.2,3.3 -5.4,5.8 z"
     class="st1"
     inkscape:connector-curvature="0"
     style="fill:#6c6c6c" /><path
     id="path3942"
     d="m 560.49999,141.7 c -1.3,0.6 -3.9,1.3 -7.2,1.3 -7.6,0 -13.4,-4.8 -13.4,-13.7 0,-8.5 5.8,-14.2 14.2,-14.2 3.4,0 5.5,0.7 6.4,1.2 l -0.8,2.9 c -1.3,-0.6 -3.2,-1.1 -5.5,-1.1 -6.3,0 -10.6,4.1 -10.6,11.2 0,6.6 3.8,10.9 10.4,10.9 2.1,0 4.3,-0.4 5.7,-1.1 z"
     class="st1"
     inkscape:connector-curvature="0"
     style="fill:#6c6c6c" /><path
     id="path3944"
     d="m 581.89999,132.7 c 0,7.2 -5,10.3 -9.7,10.3 -5.3,0 -9.3,-3.9 -9.3,-10 0,-6.5 4.3,-10.3 9.7,-10.3 5.6,0 9.3,4.1 9.3,10 z m -15.4,0.2 c 0,4.3 2.4,7.5 5.9,7.5 3.4,0 5.9,-3.2 5.9,-7.6 0,-3.3 -1.7,-7.5 -5.8,-7.5 -4.2,0 -6,3.9 -6,7.6 z"
     class="st1"
     inkscape:connector-curvature="0"
     style="fill:#6c6c6c" /><path
     id="path3946"
     d="m 586.39999,128.4 c 0,-2 0,-3.7 -0.2,-5.3 h 3.1 l 0.2,3.1 h 0.1 c 1.1,-1.8 2.9,-3.6 6.1,-3.6 2.7,0 4.7,1.6 5.5,3.9 h 0.1 c 0.6,-1.1 1.4,-1.9 2.2,-2.5 1.2,-0.9 2.4,-1.4 4.3,-1.4 2.6,0 6.4,1.7 6.4,8.4 v 11.5 h -3.5 v -11 c 0,-3.7 -1.4,-6 -4.2,-6 -2,0 -3.6,1.5 -4.2,3.2 -0.2,0.5 -0.3,1.1 -0.3,1.8 v 12 h -3.5 v -11.7 c 0,-3.1 -1.4,-5.3 -4.1,-5.3 -2.2,0 -3.8,1.8 -4.4,3.5 -0.2,0.5 -0.3,1.1 -0.3,1.7 v 11.7 h -3.5 v -14 z"
     class="st1"
     inkscape:connector-curvature="0"
     style="fill:#6c6c6c" /><path
     id="path3948"
     d="m 619.89999,129.5 c 0,-2.5 -0.1,-4.5 -0.2,-6.3 h 3.2 l 0.2,3.3 h 0.1 c 1.4,-2.4 3.7,-3.8 6.9,-3.8 4.7,0 8.2,4 8.2,9.9 0,7 -4.3,10.5 -8.8,10.5 -2.6,0 -4.8,-1.1 -6,-3 h -0.1 v 10.6 h -3.5 z m 3.5,5.2 c 0,0.5 0.1,1 0.2,1.5 0.6,2.5 2.8,4.1 5.3,4.1 3.7,0 5.9,-3.1 5.9,-7.5 0,-3.9 -2.1,-7.2 -5.8,-7.2 -2.4,0 -4.7,1.7 -5.3,4.4 -0.1,0.4 -0.2,1 -0.2,1.5 z"
     class="st1"
     inkscape:connector-curvature="0"
     style="fill:#6c6c6c" /><path
     id="path3950"
     d="m 653.59999,142.6 -0.3,-2.5 h -0.1 c -1.1,1.5 -3.2,2.9 -5.9,2.9 -3.9,0 -5.9,-2.8 -5.9,-5.6 0,-4.7 4.2,-7.3 11.7,-7.2 v -0.4 c 0,-1.6 -0.4,-4.5 -4.4,-4.5 -1.8,0 -3.7,0.6 -5.1,1.5 l -0.8,-2.3 c 1.6,-1 3.9,-1.7 6.4,-1.7 5.9,0 7.4,4.1 7.4,8 v 7.3 c 0,1.7 0.1,3.3 0.3,4.7 h -3.3 z m -0.5,-9.9 c -3.9,-0.1 -8.2,0.6 -8.2,4.4 0,2.3 1.5,3.4 3.3,3.4 2.5,0 4.1,-1.6 4.7,-3.3 0.1,-0.4 0.2,-0.8 0.2,-1.1 z"
     class="st1"
     inkscape:connector-curvature="0"
     style="fill:#6c6c6c" /><path
     id="path3952"
     d="m 662.19999,128.4 c 0,-2 0,-3.7 -0.2,-5.3 h 3.1 l 0.2,3.2 h 0.1 c 1,-1.8 3.2,-3.7 6.4,-3.7 2.7,0 6.9,1.6 6.9,8.3 v 11.6 h -3.5 v -11.1 c 0,-3.1 -1.2,-5.8 -4.5,-5.8 -2.3,0 -4.1,1.7 -4.7,3.6 -0.2,0.4 -0.2,1 -0.2,1.7 v 11.7 h -3.5 z"
     class="st1"
     inkscape:connector-curvature="0"
     style="fill:#6c6c6c" /><path
     id="path3954"
     d="m 685.29999,123.1 4.3,11.5 c 0.4,1.3 0.9,2.8 1.2,4 h 0.1 c 0.4,-1.2 0.8,-2.7 1.2,-4.1 l 3.9,-11.4 h 3.7 l -5.3,13.9 c -2.5,6.7 -4.3,10.1 -6.7,12.2 -1.7,1.5 -3.5,2.1 -4.3,2.3 l -0.9,-3 c 0.9,-0.3 2.1,-0.8 3.1,-1.7 1,-0.8 2.2,-2.1 3,-3.9 0.2,-0.4 0.3,-0.6 0.3,-0.8 0,-0.2 -0.1,-0.5 -0.2,-0.9 l -7.2,-17.9 h 3.8 z"
     class="st1"
     inkscape:connector-curvature="0"
     style="fill:#6c6c6c" /></g>
</svg>